<?xml version="1.0" encoding="utf-8"?>
<!-- Generator: Adobe Illustrator 22.1.0, SVG Export Plug-In . SVG Version: 6.00 Build 0)  -->
<svg version="1.1" id="Icon_Set" xmlns="http://www.w3.org/2000/svg" xmlns:xlink="http://www.w3.org/1999/xlink" x="0px" y="0px"
	 viewBox="0 0 512 512" style="enable-background:new 0 0 512 512;" xml:space="preserve">
<style type="text/css">
	.st0{fill:#F0C48A;}
	.st1{fill:#FD919E;}
	.st2{fill:#4C4372;}
	.st3{fill:#D3E6F8;}
	.st4{fill:#A4CFF2;}
	.st5{fill:#7BABF1;}
	.st6{fill:#FFFFFF;}
	.st7{fill:#E8677D;}
	.st8{fill:none;stroke:#4C4372;stroke-width:12;stroke-linecap:round;stroke-linejoin:round;stroke-miterlimit:10;}
</style>
<g id="Medical_Folder">
	<g>
		<g>
			<circle class="st0" cx="256" cy="256" r="207"/>
		</g>
	</g>
	<g>
		<g>
			<path class="st5" d="M400.046,325.372H111.954V149.075c0-13.099,10.619-23.718,23.718-23.718h71.417l21.853,22.823h147.386
				c13.099,0,23.718,10.619,23.718,23.718V325.372z"/>
		</g>
		<g>
			<path class="st2" d="M400.046,331.373H111.954c-3.313,0-6-2.687-6-6V149.075c0-16.387,13.331-29.718,29.718-29.718h71.417
				c1.637,0,3.202,0.668,4.334,1.851l20.08,20.972h144.825c16.387,0,29.718,13.332,29.718,29.718v153.475
				C406.046,328.686,403.359,331.373,400.046,331.373z M117.954,319.373h276.092V171.898c0-9.77-7.948-17.718-17.718-17.718H228.941
				c-1.637,0-3.202-0.668-4.334-1.851l-20.08-20.972h-68.855c-9.77,0-17.718,7.948-17.718,17.718V319.373z"/>
		</g>
		<g>
			<path class="st3" d="M376.328,386.643H135.672c-13.099,0-23.718-10.619-23.718-23.718V210.346
				c0-13.099,10.619-23.718,23.718-23.718h240.656c13.099,0,23.718,10.619,23.718,23.718v152.579
				C400.046,376.024,389.427,386.643,376.328,386.643z"/>
		</g>
		<g>
			<path class="st4" d="M376.328,186.627h-18.185v200.016h18.185c13.099,0,23.718-10.619,23.718-23.719V210.346
				C400.046,197.246,389.427,186.627,376.328,186.627z"/>
		</g>
		<g>
			<g>
				<polygon class="st1" points="311.427,267.622 275.013,267.622 275.013,231.208 236.987,231.208 236.987,267.622 
					200.573,267.622 200.573,305.649 236.987,305.649 236.987,342.063 275.013,342.063 275.013,305.649 311.427,305.649 				"/>
			</g>
			<g>
				<path class="st2" d="M275.014,348.062h-38.027c-3.313,0-6-2.687-6-6v-30.414h-30.414c-3.313,0-6-2.687-6-6v-38.027
					c0-3.313,2.687-6,6-6h30.414v-30.414c0-3.313,2.687-6,6-6h38.027c3.313,0,6,2.687,6,6v30.414h30.414c3.313,0,6,2.687,6,6v38.027
					c0,3.313-2.687,6-6,6h-30.414v30.414C281.014,345.376,278.327,348.062,275.014,348.062z M242.986,336.062h26.027v-30.414
					c0-3.313,2.687-6,6-6h30.414v-26.027h-30.414c-3.313,0-6-2.687-6-6v-30.414h-26.027v30.414c0,3.313-2.687,6-6,6h-30.414v26.027
					h30.414c3.313,0,6,2.687,6,6V336.062z"/>
			</g>
		</g>
		<g>
			<path class="st2" d="M376.328,392.643H135.672c-16.387,0-29.718-13.332-29.718-29.718V210.346
				c0-16.387,13.331-29.718,29.718-29.718h240.656c16.387,0,29.718,13.332,29.718,29.718v152.579
				C406.046,379.312,392.715,392.643,376.328,392.643z M135.672,192.627c-9.77,0-17.718,7.948-17.718,17.718v152.579
				c0,9.77,7.948,17.718,17.718,17.718h240.656c9.77,0,17.718-7.948,17.718-17.718V210.346c0-9.77-7.948-17.718-17.718-17.718
				H135.672z"/>
		</g>
	</g>
</g>
</svg>
